<?xml version="1.0" encoding="UTF-8" standalone="no"?>
<svg width="130px" height="44px" viewBox="0 0 130 44" version="1.1" xmlns="http://www.w3.org/2000/svg" xmlns:xlink="http://www.w3.org/1999/xlink" xmlns:sketch="http://www.bohemiancoding.com/sketch/ns">
    <!-- Generator: Sketch 3.5.1 (25234) - http://www.bohemiancoding.com/sketch -->
    <title>AppStore</title>
    <desc>Created with Sketch.</desc>
    <defs></defs>
    <g id="Page-1" stroke="none" stroke-width="1" fill="none" fill-rule="evenodd" sketch:type="MSPage">
        <g id="Artboard-1" sketch:type="MSArtboardGroup" transform="translate(-1071.000000, -713.000000)">
            <g id="AppStore" sketch:type="MSLayerGroup" transform="translate(1071.000000, 713.000000)">
                <rect id="Rectangle-4" fill="#363636" sketch:type="MSShapeGroup" x="0" y="0" width="130" height="44" rx="4"></rect>
                <g id="Group-2" transform="translate(11.000000, 7.000000)" fill="#FFFFFF" sketch:type="MSShapeGroup">
                    <g id="icon" transform="translate(0.530129, 0.744000)">
                        <path d="M16.9291128,13.2487722 C16.9007882,10.1014195 19.5066485,8.57022215 19.625807,8.49893554 C18.1499994,6.34764231 15.8625463,6.05370711 15.0587146,6.03027041 C13.1375275,5.82812893 11.2739663,7.17964496 10.2953036,7.17964496 C9.2971068,7.17964496 7.79004444,6.04980099 6.16577697,6.08300298 C4.0756192,6.11522843 2.1202473,7.32514777 1.04782055,9.20398942 C-1.16540259,13.0349124 0.485236028,18.6646017 2.60567179,21.7611749 C3.66637803,23.2787008 4.90582205,24.9710255 6.5281361,24.9114572 C8.11528862,24.8470063 8.70815113,23.8997732 10.623478,23.8997732 C12.521224,23.8997732 13.0779483,24.9114572 14.7324937,24.872396 C16.4358746,24.8470063 17.5083014,23.3499874 18.5318927,21.8187901 C19.7576628,20.0825217 20.2499242,18.3687134 20.2694584,18.2808258 C20.23039,18.2681309 16.9623209,17.0211035 16.9291128,13.2487722" id="Fill-2"></path>
                        <path d="M13.8036432,3.99323107 C14.6572871,2.92588496 15.2413592,1.47378645 15.0792255,0.000204297521 C13.8436883,0.0548899174 12.2985343,0.854667107 11.4087522,1.89857653 C10.6215245,2.81846678 9.91829388,4.32622744 10.0999618,5.74414744 C11.4878656,5.8476595 12.9128844,5.0439762 13.8036432,3.99323107" id="Fill-3"></path>
                    </g>
                    <g id="App-Store" transform="translate(29.487475, 12.272000)">
                        <path d="M10.9605723,13.1656912 L8.74246556,13.1656912 L7.52743927,9.34843967 L3.30414851,9.34843967 L2.14674806,13.1656912 L-0.012756074,13.1656912 L4.17244302,0.170044298 L6.75681568,0.170044298 L10.9605723,13.1656912 L10.9605723,13.1656912 Z M7.1611733,7.74693223 L6.06237541,4.35447074 C5.94614701,4.00682645 5.72736414,3.19044826 5.40700351,1.9053362 L5.36793514,1.9053362 C5.23900952,2.45805157 5.03292387,3.27442975 4.7506549,4.35447074 L3.67041447,7.74693223 L7.1611733,7.74693223 L7.1611733,7.74693223 Z" id="Fill-4"></path>
                        <path d="M21.7024205,8.36507504 C21.7024205,9.95877025 21.2697383,11.2184926 20.4033972,12.1432655 C19.6278901,12.9664793 18.663878,13.377598 17.5142913,13.377598 C16.2728938,13.377598 15.3801816,12.9352304 14.8381079,12.0475656 L14.8381079,16.9643888 L12.7557638,16.9643888 L12.7557638,6.8748919 C12.7557638,5.87394975 12.7293927,4.84761785 12.6786038,3.79491967 L14.5099336,3.79491967 L14.626162,5.28119669 L14.6652304,5.28119669 C15.3596707,4.16111802 16.4135399,3.60156694 17.8278149,3.60156694 C18.9334498,3.60156694 19.85644,4.03807537 20.5948322,4.91206876 C21.3322477,5.78801521 21.7024205,6.93836628 21.7024205,8.36507504 L21.7024205,8.36507504 Z M19.581008,8.4412443 C19.581008,7.52916628 19.3758991,6.77723901 18.9637278,6.18546248 C18.5134648,5.56927273 17.9088818,5.25971306 17.1509554,5.25971306 C16.6372064,5.25971306 16.1703393,5.43158215 15.7532845,5.77141421 C15.3352529,6.11222281 15.0617744,6.55849653 14.9338254,7.11218843 C14.8693626,7.36901554 14.8371312,7.57896926 14.8371312,7.74497917 L14.8371312,9.30937851 C14.8371312,9.98904264 15.046147,10.5642182 15.4641786,11.0349051 C15.8822101,11.503639 16.4252605,11.7389825 17.0933296,11.7389825 C17.8776271,11.7389825 18.4880704,11.435282 18.9246594,10.8327636 C19.3622251,10.2282922 19.581008,9.43144463 19.581008,8.4412443 L19.581008,8.4412443 Z" id="Fill-5"></path>
                        <path d="M32.4823604,8.36507504 C32.4823604,9.95877025 32.0496782,11.2184926 31.1833371,12.1432655 C30.4068532,12.9664793 29.4438179,13.377598 28.2932544,13.377598 C27.0528337,13.377598 26.1601215,12.9352304 25.6170711,12.0475656 L25.6170711,16.9643888 L23.534727,16.9643888 L23.534727,6.8748919 C23.534727,5.87394975 23.5083559,4.84761785 23.457567,3.79491967 L25.2888968,3.79491967 L25.4051252,5.28119669 L25.4441936,5.28119669 C26.1376571,4.16111802 27.1915264,3.60156694 28.6067781,3.60156694 C29.7114363,3.60156694 30.6354032,4.03807537 31.3747721,4.91206876 C32.1112109,5.78801521 32.4823604,6.93836628 32.4823604,8.36507504 L32.4823604,8.36507504 Z M30.3599712,8.4412443 C30.3599712,7.52916628 30.1538855,6.77723901 29.7417142,6.18546248 C29.292428,5.56927273 28.6888217,5.25971306 27.9308953,5.25971306 C27.4171463,5.25971306 26.9502792,5.43158215 26.531271,5.77141421 C26.1142161,6.11222281 25.8407375,6.55849653 25.7127886,7.11218843 C25.6493025,7.36901554 25.6151177,7.57896926 25.6151177,7.74497917 L25.6151177,9.30937851 C25.6151177,9.98904264 25.8251102,10.5642182 26.2411883,11.0349051 C26.6592199,11.5026625 27.2022702,11.7389825 27.8722928,11.7389825 C28.657567,11.7389825 29.2680103,11.435282 29.7036226,10.8327636 C30.1411883,10.2282922 30.3599712,9.43144463 30.3599712,8.4412443 L30.3599712,8.4412443 Z" id="Fill-6"></path>
                        <path d="M44.5349524,9.52128529 C44.5349524,10.626716 44.1491523,11.5260992 43.3795054,12.2204112 C42.5336752,12.9781977 41.3528337,13.3580674 39.8389344,13.3580674 C38.4402868,13.3580674 37.3190245,13.0885455 36.4731943,12.548525 L36.954712,10.8132331 C37.8679351,11.3532536 38.8710155,11.6237521 39.9629765,11.6237521 C40.7482507,11.6237521 41.358694,11.4460238 41.7943063,11.0934969 C42.231872,10.7390169 42.4516316,10.2673534 42.4516316,9.67752992 C42.4516316,9.14922777 42.2699637,8.70588364 41.9105347,8.34554446 C41.550129,7.98715835 40.9543363,7.6512324 40.1182732,7.34460231 C37.8425407,6.49599868 36.7036977,5.25385388 36.7036977,3.62207405 C36.7036977,2.55570446 37.1061019,1.6826876 37.9079802,1.00009388 C38.7108352,0.318476694 39.7754483,-0.0223319008 41.099866,-0.0223319008 C42.2826609,-0.0223319008 43.2681605,0.183715702 44.0505046,0.59483438 L43.5279652,2.29204165 C42.7915264,1.89361785 41.9603469,1.69440595 41.0305197,1.69440595 C40.2960343,1.69440595 39.7187991,1.8750638 39.3076046,2.23442645 C38.9608728,2.55570446 38.7840884,2.94729256 38.7840884,3.41212033 C38.7840884,3.92479802 38.9843138,4.35056463 39.3837879,4.68356099 C39.7295429,4.99214413 40.3604971,5.32709355 41.2727436,5.6864562 C42.3920523,6.13761256 43.2134648,6.66298512 43.7408878,7.26648 C44.2712409,7.86997488 44.5349524,8.62287868 44.5349524,9.52128529" id="Fill-7"></path>
                        <path d="M51.4373566,5.35736595 L49.1420899,5.35736595 L49.1420899,9.90701421 C49.1420899,11.064201 49.5464475,11.6413296 50.3571162,11.6413296 C50.7292424,11.6413296 51.0378825,11.6100807 51.2820599,11.5446532 L51.3396857,13.1256536 C50.9294678,13.2789686 50.3893476,13.3561144 49.7212785,13.3561144 C48.8979126,13.3561144 48.2562146,13.1041699 47.791301,12.6032106 C47.3283408,12.1012747 47.0968608,11.2604833 47.0968608,10.0769302 L47.0968608,5.35345983 L45.7304445,5.35345983 L45.7304445,3.79101355 L47.0968608,3.79101355 L47.0968608,2.07525223 L49.1420899,1.45808595 L49.1420899,3.79101355 L51.4373566,3.79101355 L51.4373566,5.35736595" id="Fill-8"></path>
                        <path d="M61.7728938,8.40315967 C61.7728938,9.84353983 61.3616992,11.0261164 60.5383333,11.9508893 C59.6778525,12.9020284 58.5331493,13.377598 57.1061771,13.377598 C55.729017,13.377598 54.634126,12.921559 53.817597,12.009481 C53.0010681,11.097403 52.5928037,9.9470519 52.5928037,8.5594043 C52.5928037,7.10730579 53.0157188,5.91789355 53.8556887,4.99312066 C54.6976121,4.06834777 55.8325482,3.60449653 57.2595204,3.60449653 C58.6357037,3.60449653 59.7393852,4.0624886 60.576425,4.97359008 C61.3753732,5.85930182 61.7728938,7.00086413 61.7728938,8.40315967 L61.7728938,8.40315967 Z M59.6143664,8.45100959 C59.6143664,7.59264066 59.4287916,6.85633785 59.0566654,6.2401481 C58.6200764,5.49603306 57.9940058,5.12495207 57.1852905,5.12495207 C56.3521575,5.12495207 55.7104596,5.49603306 55.2758239,6.2401481 C54.9017443,6.85633785 54.7171463,7.60533554 54.7171463,8.49007074 C54.7171463,9.3494162 54.9017443,10.0876721 55.2758239,10.7009322 C55.7260869,11.4460238 56.3541109,11.8180813 57.1686865,11.8180813 C57.9637278,11.8180813 58.587845,11.437235 59.0400614,10.6833547 C59.4219547,10.052517 59.6143664,9.31133157 59.6143664,8.45100959 L59.6143664,8.45100959 Z" id="Fill-9"></path>
                        <path d="M68.544419,5.6259114 C68.3383333,5.58782678 68.117597,5.56927273 67.8880704,5.56927273 C67.1555384,5.56927273 66.5890471,5.84367736 66.1905497,6.39834579 C65.8438179,6.88661025 65.6709404,7.50377653 65.6709404,8.2488681 L65.6709404,13.1656912 L63.5885963,13.1656912 L63.5885963,6.74599008 C63.5885963,5.66692562 63.5680854,4.68160793 63.5280403,3.7958962 L65.3417894,3.7958962 L65.4179727,5.58880331 L65.4755985,5.58880331 C65.6963348,4.97261355 66.0420899,4.47556033 66.5167706,4.10447934 C66.9816842,3.76855339 67.4817593,3.60156694 68.0218795,3.60156694 C68.2142913,3.60156694 68.3881455,3.61621488 68.5424656,3.63965157 L68.544419,5.6259114" id="Fill-10"></path>
                        <path d="M77.8573416,8.03696132 C77.8573416,8.40999537 77.8329239,8.72443769 77.7811583,8.98126479 L71.5351027,8.98126479 C71.557567,9.90701421 71.8613236,10.6159742 72.4405121,11.1042387 C72.9669584,11.5397706 73.6487015,11.7585131 74.4837879,11.7585131 C75.4087315,11.7585131 76.2526083,11.6120337 77.0115114,11.3151689 L77.3377323,12.7604317 C76.4508803,13.1461607 75.4028713,13.3395134 74.1956587,13.3395134 C72.7423153,13.3395134 71.6015189,12.9117937 70.7713161,12.0583074 C69.9440433,11.2038446 69.5279652,10.0544701 69.5279652,8.6170195 C69.5279652,7.20495868 69.9127886,6.02824132 70.6863423,5.08979702 C71.4950576,4.08787835 72.5879952,3.58691901 73.9632019,3.58691901 C75.3139907,3.58691901 76.3366053,4.08787835 77.0300689,5.08979702 C77.5809329,5.88371504 77.8573416,6.8680562 77.8573416,8.03696132 L77.8573416,8.03696132 Z M75.8716917,7.49694083 C75.8863423,6.87879802 75.7496031,6.34756628 75.4673341,5.89640992 C75.1069284,5.31635174 74.5521575,5.02729917 73.8088818,5.02729917 C73.1271387,5.02729917 72.5733446,5.30951603 72.1514062,5.87590281 C71.8046744,6.32608264 71.5985888,6.8680562 71.5351027,7.49498777 L75.8716917,7.49694083 L75.8716917,7.49694083 Z" id="Fill-11"></path>
                    </g>
                    <g id="Available-on-the" transform="translate(30.279621, 1.096000)">
                        <path d="M5.36496996,6.69483702 L4.27398574,6.69483702 L3.67721639,4.81892496 L1.60170925,4.81892496 L1.03228777,6.69483702 L-0.0293951789,6.69483702 L2.02755448,0.307361322 L3.2972765,0.307361322 L5.36496996,6.69483702 L5.36496996,6.69483702 Z M3.49750189,4.03184264 L2.95738168,2.36393124 C2.90073254,2.19303868 2.79622466,1.7955914 2.63506763,1.1608476 L2.61553345,1.1608476 C2.54911722,1.43525223 2.45437642,1.83367603 2.31177687,2.36393124 L1.78142375,4.03184264 L3.49750189,4.03184264 L3.49750189,4.03184264 Z" id="Fill-12"></path>
                        <path d="M10.5083208,2.08952661 L8.76391812,6.69483702 L7.7686514,6.69483702 L6.08089783,2.08952661 L7.18067244,2.08952661 L7.96790009,4.52498975 C8.10073254,4.93220231 8.21403082,5.32086083 8.29900452,5.68998876 L8.32732909,5.68998876 C8.40351241,5.35894545 8.51681068,4.97028694 8.65843352,4.52498975 L9.43589408,2.08952661 L10.5083208,2.08952661" id="Fill-13"></path>
                        <path d="M14.2217694,6.69483702 L14.145586,6.16458182 L14.1172615,6.16458182 C13.8047145,6.59132496 13.349568,6.79932562 12.7713561,6.79932562 C11.9470135,6.79932562 11.3590346,6.2212205 11.3590346,5.44390347 C11.3590346,4.3072238 12.3445342,3.71935339 14.0508452,3.71935339 L14.0508452,3.63439537 C14.0508452,3.02797091 13.7285312,2.72427041 13.0936702,2.72427041 C12.6385237,2.72427041 12.2400263,2.8385243 11.8903644,3.06605554 L11.6823253,2.39322711 C12.1091473,2.12761124 12.6395004,1.99480331 13.265571,1.99480331 C14.4688768,1.99480331 15.0763899,2.62954711 15.0763899,3.90001124 L15.0763899,5.59624198 C15.0763899,6.06106975 15.0959241,6.42140893 15.1428062,6.69581355 L14.2217694,6.69483702 L14.2217694,6.69483702 Z M14.0791698,4.40097058 C12.9413035,4.40097058 12.3728588,4.67635174 12.3728588,5.32964959 C12.3728588,5.8130314 12.6668482,6.0493514 13.074136,6.0493514 C13.5956987,6.0493514 14.0791698,5.65190413 14.0791698,5.11188364 L14.0791698,4.40097058 L14.0791698,4.40097058 Z" id="Fill-14"></path>
                        <path d="M17.3560293,1.33076364 C17.0151578,1.33076364 16.7494929,1.06514777 16.7494929,0.714573884 C16.7494929,0.364 17.0239482,0.108149421 17.3755635,0.108149421 C17.7262021,0.108149421 18.0104245,0.364 18.0006574,0.714573884 C18.0006574,1.08467835 17.7359692,1.33076364 17.3560293,1.33076364 L17.3560293,1.33076364 Z M16.8637679,2.08952661 L17.8873591,2.08952661 L17.8873591,6.69483702 L16.8637679,6.69483702 L16.8637679,2.08952661 Z" id="Fill-15"></path>
                        <path d="M19.7059917,-0.0236819835 L20.729583,-0.0236819835 L20.729583,6.69483702 L19.7059917,6.69483702 L19.7059917,-0.0236819835 Z" id="Fill-16"></path>
                        <path d="M25.079846,6.69483702 L25.002686,6.16458182 L24.9753381,6.16458182 C24.6627911,6.59132496 24.2076446,6.79932562 23.6294328,6.79932562 C22.8050902,6.79932562 22.2171112,6.2212205 22.2171112,5.44390347 C22.2171112,4.3072238 23.2026108,3.71935339 24.9089219,3.71935339 L24.9089219,3.63439537 C24.9089219,3.02797091 24.5866078,2.72427041 23.9517468,2.72427041 C23.4966003,2.72427041 23.0981029,2.8385243 22.748441,3.06605554 L22.5394253,2.39225058 C22.9662472,2.12663471 23.4966003,1.99382678 24.1226709,1.99382678 C25.3259767,1.99382678 25.9344666,2.62857058 25.9344666,3.89903471 L25.9344666,5.59526545 C25.9344666,6.06009322 25.9540008,6.4204324 25.9989294,6.69483702 L25.079846,6.69483702 L25.079846,6.69483702 Z M24.9372464,4.40097058 C23.7993802,4.40097058 23.2309354,4.67635174 23.2309354,5.32964959 C23.2309354,5.8130314 23.5249249,6.0493514 23.9322126,6.0493514 C24.4537754,6.0493514 24.9372464,5.65190413 24.9372464,5.11188364 L24.9372464,4.40097058 L24.9372464,4.40097058 Z" id="Fill-17"></path>
                        <path d="M30.0805973,6.79932562 C29.4271788,6.79932562 28.9446845,6.52394446 28.6311608,5.98392397 L28.6116266,5.98392397 L28.5530241,6.69483702 L27.6817994,6.69483702 C27.7091473,6.32570909 27.7189144,5.90775471 27.7189144,5.45366876 L27.7189144,-0.0236819835 L28.7444591,-0.0236819835 L28.7444591,2.76333157 L28.7630165,2.76333157 C29.0667731,2.25163041 29.5590346,1.99577983 30.2319872,1.99577983 C31.3415289,1.99577983 32.1189895,2.94398942 32.1189895,4.32675438 C32.1189895,5.75639273 31.2555785,6.79932562 30.0805973,6.79932562 L30.0805973,6.79932562 Z M29.8725582,2.79946314 C29.2836026,2.79946314 28.7444591,3.3111643 28.7444591,4.02207736 L28.7444591,4.82771372 C28.7444591,5.46245752 29.2289068,5.98392397 29.8540008,5.98392397 C30.6207175,5.98392397 31.0778174,5.35894545 31.0778174,4.36386248 C31.0768407,3.43518347 30.60216,2.79946314 29.8725582,2.79946314 L29.8725582,2.79946314 Z" id="Fill-18"></path>
                        <path d="M33.6338655,-0.0236819835 L34.6564801,-0.0236819835 L34.6564801,6.69483702 L33.6338655,6.69483702 L33.6338655,-0.0236819835 Z" id="Fill-19"></path>
                        <path d="M40.2276296,4.63826711 L37.1549023,4.63826711 C37.1754132,5.51030744 37.7516717,6.00247802 38.6043389,6.00247802 C39.0604621,6.00247802 39.4775169,5.92630876 39.846713,5.78471207 L40.0059166,6.49562512 C39.5703043,6.68507174 39.0585087,6.77979504 38.4617393,6.77979504 C37.0201165,6.77979504 36.1674493,5.86967008 36.1674493,4.45858579 C36.1674493,3.04652496 37.0406274,1.98503802 38.3474643,1.98503802 C39.5214688,1.98503802 40.2627911,2.85707835 40.2627911,4.17441587 C40.2657213,4.35409719 40.2569309,4.51522446 40.2276296,4.63826711 L40.2276296,4.63826711 Z M39.2899887,3.9088 C39.2899887,3.19788694 38.9286063,2.69595107 38.2742111,2.69595107 C37.6862322,2.69595107 37.223272,3.20765223 37.1549023,3.9088 L39.2899887,3.9088 L39.2899887,3.9088 Z" id="Fill-20"></path>
                        <path d="M46.4316867,6.79932562 C45.0857814,6.79932562 44.21358,5.79447736 44.21358,4.43026645 C44.21358,3.00844033 45.1043389,1.99480331 46.5088467,1.99480331 C47.8342412,1.99480331 48.7269534,2.95180165 48.7269534,4.35507372 C48.7269534,5.79447736 47.8068933,6.79932562 46.4316867,6.79932562 L46.4316867,6.79932562 Z M46.4707551,2.74282446 C45.7313862,2.74282446 45.2576822,3.43420694 45.2576822,4.40097058 C45.2576822,5.34918017 45.7411533,6.04056264 46.460988,6.04056264 C47.1808227,6.04056264 47.6642938,5.30133025 47.6642938,4.38144 C47.6642938,3.44397223 47.1905898,2.74282446 46.4707551,2.74282446 L46.4707551,2.74282446 Z" id="Fill-21"></path>
                        <path d="M54.2297333,6.69483702 L53.2080954,6.69483702 L53.2080954,4.05039669 C53.2080954,3.23597157 52.8945718,2.82778248 52.2782682,2.82778248 C51.6717318,2.82778248 51.2537002,3.34924893 51.2537002,3.95567339 L51.2537002,6.69483702 L50.2320624,6.69483702 L50.2320624,3.4058876 C50.2320624,2.99867504 50.2203419,2.56216661 50.192994,2.08855008 L51.0935199,2.08855008 L51.1413787,2.79946314 L51.17068,2.79946314 C51.4431818,2.30729256 52.0038129,1.99382678 52.6298836,1.99382678 C53.5948723,1.99382678 54.2297333,2.73305917 54.2297333,3.93614281 L54.2297333,6.69483702" id="Fill-22"></path>
                        <path d="M60.9270286,2.85707835 L59.8008828,2.85707835 L59.8008828,5.09332959 C59.8008828,5.66264595 59.9991548,5.94681587 60.3966754,5.94681587 C60.5763899,5.94681587 60.7297333,5.92728529 60.851822,5.89896595 L60.8801465,6.67628298 C60.6808978,6.75245223 60.4142562,6.79053686 60.0851052,6.79053686 C59.2773667,6.79053686 58.7968257,6.34523967 58.7968257,5.17926413 L58.7968257,2.85707835 L58.1258265,2.85707835 L58.1258265,2.08952661 L58.7968257,2.08952661 L58.7968257,1.24580562 L59.8008828,0.942105124 L59.8008828,2.08855008 L60.9270286,2.08855008 L60.9270286,2.85707835" id="Fill-23"></path>
                        <path d="M66.3477649,6.69483702 L65.3231969,6.69483702 L65.3231969,4.06992727 C65.3231969,3.24573686 65.0096732,2.82875901 64.3943464,2.82875901 C63.8639933,2.82875901 63.3717318,3.18909818 63.3717318,3.91856529 L63.3717318,6.69483702 L62.3471638,6.69483702 L62.3471638,-0.0236819835 L63.3717318,-0.0236819835 L63.3717318,2.74282446 L63.391266,2.74282446 C63.7126033,2.2408886 64.1784936,1.99382678 64.775263,1.99382678 C65.7509955,1.99382678 66.3477649,2.75161322 66.3477649,3.95567339 L66.3477649,6.69483702" id="Fill-24"></path>
                        <path d="M71.5780428,4.63826711 L68.5062923,4.63826711 C68.5258265,5.51030744 69.1020849,6.00247802 69.9557288,6.00247802 C70.4128287,6.00247802 70.8289068,5.92630876 71.1961495,5.78471207 L71.3563298,6.49562512 C70.9216942,6.68507174 70.4089219,6.77979504 69.8111758,6.77979504 C68.3705297,6.77979504 67.5178625,5.86967008 67.5178625,4.45858579 C67.5178625,3.04652496 68.3900639,1.98503802 69.6969008,1.98503802 C70.8718821,1.98503802 71.6122277,2.85707835 71.6122277,4.17441587 C71.6161345,4.35409719 71.6063674,4.51522446 71.5780428,4.63826711 L71.5780428,4.63826711 Z M70.6394253,3.9088 C70.6394253,3.19788694 70.2799963,2.69595107 69.6256011,2.69595107 C69.0376221,2.69595107 68.5736852,3.20765223 68.5062923,3.9088 L70.6394253,3.9088 L70.6394253,3.9088 Z" id="Fill-25"></path>
                    </g>
                </g>
            </g>
        </g>
    </g>
</svg>