<?xml version="1.0" encoding="UTF-8" standalone="no"?>
<svg width="130px" height="44px" viewBox="0 0 130 44" version="1.1" xmlns="http://www.w3.org/2000/svg" xmlns:xlink="http://www.w3.org/1999/xlink" xmlns:sketch="http://www.bohemiancoding.com/sketch/ns">
    <!-- Generator: Sketch 3.5.1 (25234) - http://www.bohemiancoding.com/sketch -->
    <title>GooglePlay</title>
    <desc>Created with Sketch.</desc>
    <defs>
        <linearGradient x1="60.1573701%" y1="91.8476975%" x2="33.5579439%" y2="-59.5891331%" id="linearGradient-1">
            <stop stop-color="#D6FFA1" offset="0%"></stop>
            <stop stop-color="#93E2A7" offset="32.64%"></stop>
            <stop stop-color="#00A3B5" offset="100%"></stop>
        </linearGradient>
        <linearGradient x1="-32.1721676%" y1="-129.73572%" x2="80.1668869%" y2="113.997954%" id="linearGradient-2">
            <stop stop-color="#FF177B" offset="0%"></stop>
            <stop stop-color="#FFA976" offset="67.21%"></stop>
            <stop stop-color="#FFEC73" offset="100%"></stop>
        </linearGradient>
        <linearGradient x1="50.8193668%" y1="74.6634124%" x2="-0.0289932314%" y2="-29.3364075%" id="linearGradient-3">
            <stop stop-color="#63FFD4" offset="0%"></stop>
            <stop stop-color="#32A0BA" offset="48.54%"></stop>
            <stop stop-color="#1262A9" offset="83.49%"></stop>
            <stop stop-color="#064AA2" offset="100%"></stop>
        </linearGradient>
        <linearGradient x1="119.507988%" y1="35.5351563%" x2="-23.112411%" y2="61.0134747%" id="linearGradient-4">
            <stop stop-color="#FF4521" offset="0%"></stop>
            <stop stop-color="#D43E65" offset="34.11%"></stop>
            <stop stop-color="#9F36B9" offset="79.35%"></stop>
            <stop stop-color="#8A33DB" offset="100%"></stop>
        </linearGradient>
    </defs>
    <g id="Page-1" stroke="none" stroke-width="1" fill="none" fill-rule="evenodd" sketch:type="MSPage">
        <g id="Artboard-1" sketch:type="MSArtboardGroup" transform="translate(-1071.000000, -773.000000)">
            <g id="GooglePlay" sketch:type="MSLayerGroup" transform="translate(1071.000000, 773.000000)">
                <rect id="btn" fill="#363636" sketch:type="MSShapeGroup" x="0" y="0" width="130" height="44" rx="4"></rect>
                <g id="icon-+-Google-play-+-Get-it-on" transform="translate(11.786260, 9.166667)" sketch:type="MSShapeGroup">
                    <g id="google-play-icon" transform="translate(0.000000, 7.708333)">
                        <path d="M10.4885496,10.0833333 L13.5572519,6.96666667 L10.4885496,10.0833333 L0.595419847,0.183333333 L10.4885496,10.0833333 L0.595419847,19.9833333 L10.4885496,10.0833333 L13.6030534,13.2 L10.4885496,10.0833333 Z" id="Shape"></path>
                        <path d="M13.5572519,6.96666667 L1.51145038,0.366666667 C1.19083969,0.183333333 0.870229008,0.1375 0.595419847,0.229166667 L10.4885496,10.0833333 L13.5572519,6.96666667 L13.5572519,6.96666667 Z" id="Shape" fill="url(#linearGradient-1)"></path>
                        <path d="M13.6030534,13.2 L17.7251908,10.9541667 C18.5496183,10.4958333 18.5496183,9.7625 17.7251908,9.30416667 L13.6030534,7.0125 L10.4885496,10.0833333 L13.6030534,13.2 L13.6030534,13.2 Z" id="Shape" fill="url(#linearGradient-2)"></path>
                        <path d="M0.595419847,0.183333333 C0.229007634,0.320833333 0,0.6875 0,1.2375 L0,18.9291667 C0,19.4791667 0.229007634,19.8458333 0.595419847,19.9833333 L10.4885496,10.0833333 L0.595419847,0.183333333 L0.595419847,0.183333333 Z" id="Shape" fill="url(#linearGradient-3)"></path>
                        <path d="M0.595419847,19.9833333 C0.870229008,20.075 1.19083969,20.0291667 1.51145038,19.8458333 L13.5572519,13.2 L10.4885496,10.0833333 L0.595419847,19.9833333 L0.595419847,19.9833333 Z" id="Shape" fill="url(#linearGradient-4)"></path>
                    </g>
                    <g id="google-play" transform="translate(22.442748, 12.000000)" fill="#FFFFFF">
                        <path d="M77.2774124,15.5833333 L82.4427481,3.66666667 L80.7604332,3.66666667 L78.3712665,9.60806019 L78.3374959,9.60806019 L75.8811764,3.66666667 L74.1984733,3.66666667 L77.5972618,11.414194 L75.6793297,15.5833333 L77.2774124,15.5833333" id="Fill-3"></path>
                        <path d="M70.0763359,3.66666667 C68.009087,3.66666667 67.0171487,4.90136716 66.7317435,5.65188647 L68.1432584,6.25230192 C68.4290514,5.48484782 69.2526936,5.06802093 70.1100726,5.06802093 C71.2699191,5.06802093 72.2614696,5.81854025 72.2614696,7.05324074 L72.2614696,7.28686393 C71.9419398,7.10327536 71.1353599,6.78613284 70.0259246,6.78613284 C68.0928472,6.78613284 66.4122137,7.78721014 66.4122137,9.638876 C66.4122137,11.3408229 67.8070542,12.375 69.4880754,12.375 C70.8999781,12.375 71.7402948,11.6575805 72.1939961,10.9736457 L72.2614696,10.9736457 L72.2614696,12.1078921 L73.740458,12.1078921 L73.740458,7.1698599 C73.740458,4.86788245 72.0931736,3.66666667 70.0763359,3.66666667 L70.0763359,3.66666667 Z M69.7401316,10.9736457 C68.9335517,10.9736457 68.0257614,10.5398841 68.0257614,9.67236071 C68.0257614,8.92145651 68.6644332,8.05431804 70.2950431,8.05431804 C71.6057356,8.05431804 72.2614696,8.58776408 72.2614696,8.58776408 C72.2614696,9.92253381 70.9670638,10.9736457 69.7401316,10.9736457 L69.7401316,10.9736457 Z" id="Fill-2"></path>
                        <path d="M64.1221374,0.458333333 L65.4961832,0.458333333 L65.4961832,12.375 L64.1221374,12.375 L64.1221374,0.458333333 Z" id="Fill-1"></path>
                        <path d="M59.0215416,0.458333333 L54.9618321,0.458333333 L54.9618321,12.375 L56.4925233,12.375 L56.4925233,7.54843322 L59.0215416,7.54843322 C61.0009234,7.54843322 62.7480916,6.08395226 62.7480916,4.00357526 C62.7480916,1.92319827 61.0009234,0.458333333 59.0215416,0.458333333 L59.0215416,0.458333333 Z M59.0545505,6.08395226 L56.4925233,6.08395226 L56.4925233,1.92319827 L59.0545505,1.92319827 C60.418662,1.92319827 61.1840076,3.05477284 61.1840076,4.00357526 C61.1840076,4.95199372 60.418662,6.08395226 59.0545505,6.08395226 L59.0545505,6.08395226 Z" id="Fill-4"></path>
                        <path d="M44.1918705,8.31701579 C44.1456371,6.76874621 45.4089664,5.97981178 46.3182246,5.97981178 C47.0271377,5.97981178 47.6277874,6.32893139 47.8281324,6.82946266 L44.1918705,8.31701579 L44.1918705,8.31701579 Z M46.4569249,12.4449757 C48.3212893,12.4449757 49.3996849,11.3217213 49.8466084,10.6693989 L48.4599897,9.75865209 C47.9976551,10.4265331 47.3657978,10.8667274 46.4569249,10.8667274 C45.5476668,10.8667274 44.9003983,10.4568913 44.4846825,9.6523983 L49.9236641,7.4366272 L49.7387303,6.98125379 C49.3996849,6.08606557 48.3675228,4.4315422 46.2565799,4.4315422 C44.1610482,4.4315422 42.419973,6.05570735 42.419973,8.43844869 C42.419973,10.684578 44.1456371,12.4449757 46.4569249,12.4449757 L46.4569249,12.4449757 Z" id="Fill-5"></path>
                        <path d="M39.7696398,12.2021099 L41.5569484,12.2021099 L41.5569484,0.425015179 L39.7696398,0.425015179 L39.7696398,12.2021099 Z" id="Path"></path>
                        <path d="M34.6693182,16.0416667 C36.7648499,16.0416667 38.5367474,14.8277171 38.5367474,11.8681694 L38.5367474,4.67440801 L36.8419057,4.67440801 L36.8419057,5.3271099 L36.7802611,5.3271099 C36.3795711,4.85655738 35.6090134,4.4315422 34.6384959,4.4315422 C32.6046088,4.4315422 30.7402444,6.19231937 30.7402444,8.45362781 C30.7402444,10.6997571 32.6046088,12.4449757 34.6384959,12.4449757 C35.6090134,12.4449757 36.3795711,12.0199605 36.7802611,11.5342289 L36.8419057,11.5342289 L36.8419057,12.1110352 C36.8419057,13.6437462 36.0097034,14.4634183 34.6693182,14.4634183 C33.5751263,14.4634183 32.8974207,13.6892835 32.62002,13.0369611 L31.0634934,13.6741044 C31.5104168,14.7366424 32.6970757,16.0416667 34.6693182,16.0416667 Z M34.7926075,10.8667274 C33.5597151,10.8667274 32.527553,9.84972678 32.527553,8.45362781 C32.527553,7.04197025 33.5597151,6.01017001 34.7926075,6.01017001 C36.0097034,6.01017001 36.9651949,7.04197025 36.9651949,8.45362781 C36.9651949,9.84972678 36.0097034,10.8667274 34.7926075,10.8667274 Z" id="Path"></path>
                        <path d="M25.9173236,12.4449757 C28.1669669,12.4449757 30.000509,10.7452945 30.000509,8.43844869 C30.000509,6.1164238 28.1669669,4.4315422 25.9173236,4.4315422 C23.6676804,4.4315422 21.8341383,6.1164238 21.8341383,8.43844869 C21.8341383,10.7452945 23.6676804,12.4449757 25.9173236,12.4449757 Z M25.9173236,10.8667274 C24.6844313,10.8667274 23.6214469,9.86490589 23.6214469,8.43844869 C23.6214469,6.99643291 24.6844313,6.01017001 25.9173236,6.01017001 C27.1498307,6.01017001 28.2132004,6.99643291 28.2132004,8.43844869 C28.2132004,9.86490589 27.1498307,10.8667274 25.9173236,10.8667274 Z" id="Path"></path>
                        <path d="M17.0112175,12.4449757 C19.2608608,12.4449757 21.0944029,10.7452945 21.0944029,8.43844869 C21.0944029,6.1164238 19.2608608,4.4315422 17.0112175,4.4315422 C14.7615742,4.4315422 12.9276469,6.1164238 12.9276469,8.43844869 C12.9276469,10.7452945 14.7615742,12.4449757 17.0112175,12.4449757 Z M17.0112175,10.8667274 C15.7783252,10.8667274 14.7153408,9.86490589 14.7153408,8.43844869 C14.7153408,6.99643291 15.7783252,6.01017001 17.0112175,6.01017001 C18.2437246,6.01017001 19.3070942,6.99643291 19.3070942,8.43844869 C19.3070942,9.86490589 18.2437246,10.8667274 17.0112175,10.8667274 Z" id="Path"></path>
                        <path d="M6.40988439,12.4449757 C8.29004523,12.4449757 9.70748616,11.8378112 10.816704,10.6997571 C11.9571294,9.57650273 12.311586,7.9982544 12.311586,6.72320886 C12.311586,6.32893139 12.2807637,5.96463267 12.219119,5.66105039 L6.40988439,5.66105039 L6.40988439,7.36073163 L10.5393032,7.36073163 C10.416014,8.31701579 10.092765,9.01487553 9.59960808,9.50060716 C8.99857305,10.0925926 8.05849264,10.7452945 6.40988439,10.7452945 C3.8674292,10.7452945 1.87977556,8.72685185 1.87977556,6.2226776 C1.87977556,3.71850334 3.8674292,1.70006072 6.40988439,1.70006072 C7.78147714,1.70006072 8.78281689,2.23095021 9.5225523,2.91401032 L10.7396482,1.71523983 C9.70748616,0.743776563 8.33589342,0 6.40988439,0 C2.92773406,0 0,2.79257741 0,6.2226776 C0,9.6523983 2.92773406,12.4449757 6.40988439,12.4449757 L6.40988439,12.4449757 Z" id="Path"></path>
                    </g>
                    <path d="M27.0114531,4.73157648 C26.9565864,4.80319142 26.8802513,4.88256346 26.7824455,4.96969497 C26.6846397,5.05682648 26.558806,5.13798887 26.4049407,5.21318456 C26.2510755,5.28838024 26.0662014,5.35163916 25.8503129,5.4029632 C25.6344244,5.45428724 25.3809679,5.47994888 25.089936,5.47994888 C24.7631213,5.47994888 24.4631482,5.42385135 24.1900075,5.31165461 C23.9168668,5.19945787 23.6824942,5.0371331 23.4868825,4.82467544 C23.2912709,4.61221778 23.139197,4.35082717 23.0306564,4.04049575 C22.9221158,3.73016434 22.8678463,3.3756757 22.8678463,2.97701919 L22.8678463,2.63326919 C22.8678463,2.23699985 22.9167484,1.88310799 23.0145543,1.57158299 C23.1123601,1.260058 23.253103,0.996877036 23.4367871,0.782032212 C23.6204712,0.567187387 23.8447056,0.403669057 24.109497,0.291472316 C24.3742884,0.179275574 24.6748579,0.123178045 25.0112146,0.123178045 C25.3284872,0.123178045 25.605202,0.164356019 25.8413673,0.246713201 C26.0775326,0.329070384 26.2767195,0.444249354 26.438934,0.592253566 C26.6011486,0.740257778 26.7287714,0.916308535 26.8218062,1.12041112 C26.914841,1.3245137 26.9768633,1.54830704 27.0078749,1.79179784 L26.1204703,1.79179784 C26.0990007,1.65572945 26.0632187,1.53040518 26.013123,1.41582127 C25.9630273,1.30123737 25.894445,1.20217152 25.8073739,1.11862075 C25.7203029,1.03506999 25.6129566,0.969423943 25.485332,0.921680649 C25.3577073,0.873937355 25.2056334,0.850066066 25.0291058,0.850066066 C24.8167956,0.850066066 24.6325178,0.889453693 24.4762671,0.968230128 C24.3200163,1.04700656 24.190008,1.16218553 24.0862384,1.31377049 C23.9824688,1.46535545 23.904941,1.65155151 23.8536526,1.87236424 C23.8023641,2.09317698 23.7767203,2.3444223 23.7767203,2.62610773 L23.7767203,2.97701919 C23.7767203,3.26347896 23.8077314,3.5171114 23.8697547,3.73792414 C23.9317779,3.95873687 24.0206367,4.14433615 24.1363339,4.29472752 C24.252031,4.4451189 24.3927739,4.55970109 24.5585667,4.63847752 C24.7243595,4.71725396 24.9122154,4.75664159 25.1221402,4.75664159 C25.2771982,4.75664159 25.4101883,4.74649629 25.5211144,4.72620539 C25.6320405,4.70591449 25.7256703,4.68025285 25.8020066,4.64921971 C25.8783428,4.61818657 25.9409615,4.58416998 25.9898644,4.54716893 C26.0387673,4.51016788 26.078724,4.47495773 26.1097356,4.44153742 L26.1097356,3.42102961 L25.0362623,3.42102961 L25.0362623,2.73352961 L27.0114531,2.73352961 L27.0114531,4.73157648 Z M31.0512909,3.08086034 L28.9115008,3.08086034 L28.9115008,4.685027 L31.4126936,4.685027 L31.4126936,5.40833429 L28.006205,5.40833429 L28.006205,0.194792628 L31.3876459,0.194792628 L31.3876459,0.925261378 L28.9115008,0.925261378 L28.9115008,2.3647145 L31.0512909,2.3647145 L31.0512909,3.08086034 Z M35.9141249,0.925261378 L34.289602,0.925261378 L34.289602,5.40833429 L33.3914627,5.40833429 L33.3914627,0.925261378 L31.7812528,0.925261378 L31.7812528,0.194792628 L35.9141249,0.194792628 L35.9141249,0.925261378 Z M39.3778653,5.40833429 L38.4761478,5.40833429 L38.4761478,0.194792628 L39.3778653,0.194792628 L39.3778653,5.40833429 Z M44.2550123,0.925261378 L42.6304894,0.925261378 L42.6304894,5.40833429 L41.7323501,5.40833429 L41.7323501,0.925261378 L40.1221402,0.925261378 L40.1221402,0.194792628 L44.2550123,0.194792628 L44.2550123,0.925261378 Z M50.9212814,2.93763117 C50.9212814,3.33390051 50.8693974,3.68898594 50.7656278,4.0028981 C50.6618581,4.31681026 50.515748,4.58297513 50.3272928,4.8014007 C50.1388377,5.01982627 49.9122178,5.18752208 49.6474264,5.30449315 C49.382635,5.42146422 49.0892219,5.47994888 48.7671783,5.47994888 C48.4475202,5.47994888 48.1552999,5.42146422 47.8905085,5.30449315 C47.6257171,5.18752208 47.3973081,5.01982627 47.2052747,4.8014007 C47.0132413,4.58297513 46.8641493,4.31681026 46.7579942,4.0028981 C46.6518391,3.68898594 46.5987623,3.33390051 46.5987623,2.93763117 L46.5987623,2.67265721 C46.5987623,2.27638787 46.6518391,1.92070566 46.7579942,1.60559992 C46.8641493,1.29049418 47.0120486,1.02313574 47.2016965,0.803516587 C47.3913443,0.583897433 47.6185606,0.415604845 47.883352,0.298633774 C48.1481434,0.181662703 48.4403637,0.123178045 48.7600218,0.123178045 C49.0820654,0.123178045 49.3760749,0.181662703 49.642059,0.298633774 C49.9080432,0.415604845 50.1358558,0.583897433 50.3255037,0.803516587 C50.5151516,1.02313574 50.6618581,1.29049418 50.7656278,1.60559992 C50.8693974,1.92070566 50.9212814,2.27638787 50.9212814,2.67265721 L50.9212814,2.93763117 Z M50.0159856,2.66549575 C50.0159856,2.37426166 49.9879563,2.11704852 49.9318968,1.89384862 C49.8758374,1.67064872 49.794135,1.48385588 49.6867871,1.3334645 C49.5794392,1.18307313 49.4476419,1.06908772 49.2913911,0.991504868 C49.1351403,0.913922015 48.958019,0.87513117 48.7600218,0.87513117 C48.5667957,0.87513117 48.3926562,0.913922015 48.2375982,0.991504868 C48.0825401,1.06908772 47.9507428,1.18307313 47.8422022,1.3334645 C47.7336616,1.48385588 47.65017,1.67064872 47.5917251,1.89384862 C47.5332801,2.11704852 47.5040581,2.37426166 47.5040581,2.66549575 L47.5040581,2.93763117 C47.5040581,3.22886527 47.5332801,3.48667519 47.5917251,3.71106867 C47.65017,3.93546215 47.7342579,4.12344855 47.8439913,4.27503351 C47.9537247,4.42661847 48.0867148,4.54120066 48.2429655,4.61878351 C48.3992163,4.69636637 48.5739522,4.73515721 48.7671783,4.73515721 C49.1679437,4.73515721 49.476266,4.58238096 49.6921545,4.27682388 C49.908043,3.97126679 50.0159856,3.52487369 50.0159856,2.93763117 L50.0159856,2.66549575 Z M55.9558711,5.40833429 L55.0505753,5.40833429 L52.7282947,1.70944107 L52.7282947,5.40833429 L51.8229989,5.40833429 L51.8229989,0.194792628 L52.7282947,0.194792628 L55.0577318,3.90800877 L55.0577318,0.194792628 L55.9558711,0.194792628 L55.9558711,5.40833429 Z" id="GET-IT-ON" fill="#FFFFFF"></path>
                </g>
            </g>
        </g>
    </g>
</svg>